<svg xmlns="http://www.w3.org/2000/svg" xml:space="preserve" id="Layer_1" x="0" y="0" viewBox="0 0 512 512"><style>.st1{fill:#bdc3c7}.st2{fill:#27ae60}.st5{fill:#f39c12}.st6{fill:#2980b9}.st7{fill:#f1c40f}</style><g id="XMLID_1_"><path id="XMLID_3_" d="m163.1 46.5 185.8 23.6V512l-185.8-23.6z" style="fill:#ecf0f1"/><path id="XMLID_4_" d="m23.6 70.1 139.5-23.6v441.9L23.6 512z" class="st1"/><path id="XMLID_5_" d="m348.9 70.1 139.5-23.6v441.9L348.9 512z" class="st1"/><path id="XMLID_6_" d="m46.5 92.9 116.6-22.8v395.4L46.5 488.4z" class="st2"/><path id="XMLID_7_" d="m163.1 70.1 185.8 22.8v395.5l-185.8-22.9z" style="fill:#2ecc71"/><path id="XMLID_10_" d="M279.6 23.6c-38.6 0-70.1 31.5-70.1 70.1s31.5 70.1 70.1 70.1 70.1-31.5 70.1-70.1-31.5-70.1-70.1-70.1m0 46.5c12.6 0 23.6 10.2 23.6 23.6s-10.2 23.6-23.6 23.6c-12.6 0-23.6-10.2-23.6-23.6s10.2-23.6 23.6-23.6" style="fill:#c0392b"/><path id="XMLID_11_" d="m465.5 465.5-116.6 22.9V92.9l116.6-22.8z" class="st2"/><path id="XMLID_12_" d="M108.7 78.8 55.1 90.6l108 114.2v-67.7z" class="st5"/><path id="XMLID_13_" d="m465.5 419.1-116.6 22.8V302.5l116.6-70.1z" class="st5"/><path id="XMLID_14_" d="m465.5 465.5-116.6 22.9V348.9l116.6-69.3z" class="st6"/><path id="XMLID_15_" d="m163.1 326.1 185.8-23.6v139.4l-185.8-22.8z" class="st7"/><path id="XMLID_16_" d="m163.1 372.6 185.8-23.7v139.5l-185.8-22.9z" style="fill:#3498db"/><path id="XMLID_17_" d="m46.5 395.4 116.6-69.3v93L46.5 441.9z" class="st5"/><path id="XMLID_18_" d="m46.5 441.9 116.6-69.3v92.9L46.5 488.4z" class="st6"/><path id="XMLID_19_" d="M163.1 204.8v-67.7L256 338.7h-33.9z" class="st7"/><path id="XMLID_22_" d="M279.6 0c-51.2 0-92.9 41.7-92.9 92.9 0 16.5 4.7 29.9 11.8 44.1 1.6 2.4 2.4 4.7 3.9 7.1l77.2 135.5 77.2-134.7c1.6-2.4 2.4-4.7 3.2-4.7l.8-2.4c7.9-14.2 11.8-27.6 11.8-44.1 0-52-41.8-93.7-93-93.7m0 46.5c26 0 46.5 21.3 46.5 46.5s-20.5 46.5-46.5 46.5-46.5-21.3-46.5-46.5 20.5-46.5 46.5-46.5" style="fill:#e74c3c"/></g></svg>