<svg xmlns="http://www.w3.org/2000/svg" xml:space="preserve" id="Layer_1" x="0" y="0" viewBox="0 0 512 512"><style>.st0,.st1{fill-rule:evenodd;clip-rule:evenodd;fill:#ff3a2f}.st1{opacity:.35;fill:#010101;enable-background:new}</style><g id="group-123svg"><path id="path-1" d="M231.76 255.46 93.42 466.78l65.31-9.88L188 511.95l69.17-245.62z" class="st0"/><path id="path-2" d="m279.75 255.46 138.34 211.31-65.3-9.88-29.27 55.05-69.17-245.62z" class="st0"/><path id="path-3" d="m202.94 299.48 33.63 39.98L253.88 278H217z" class="st1"/><path id="path-4" d="m267.71 313.78 67.04 25.69-40.24-61.46h-36.88z" class="st1"/><path id="path-5" d="M401.49 144.98c0 80.1-64.93 145.02-145.02 145.02-80.1 0-145.02-64.93-145.02-145.02 0-80.1 64.93-145.03 145.02-145.03s145.02 64.93 145.02 145.03" style="fill-rule:evenodd;clip-rule:evenodd;fill:#fbb713"/><path id="path-6" d="M295.51 5.42c43.08 25.14 72.1 71.74 72.1 125.22 0 80.1-64.93 145.02-145.02 145.02-13.55 0-26.61-1.99-39.04-5.47 21.44 12.52 46.3 19.81 72.92 19.81 80.09 0 145.02-64.93 145.02-145.03 0-66.54-44.88-122.48-105.98-139.55" style="opacity:.25;fill-rule:evenodd;clip-rule:evenodd;fill:#010101"/><path id="path-7" d="m288.23 220.66-22.55-11.55a18 18 0 0 0-16.76.18l-22.29 12.03c-13.14 7.09-28.7-3.97-26.33-18.71l4.01-25.01c.94-5.85-1.06-11.79-5.35-15.89l-18.33-17.49c-10.8-10.31-5.09-28.52 9.65-30.83l25.03-3.91c5.86-.91 10.89-4.65 13.46-10l10.97-22.83c6.47-13.46 25.55-13.66 32.3-.34L283.5 98.9c2.68 5.29 7.79 8.92 13.66 9.71l25.1 3.38c14.79 1.99 20.89 20.08 10.31 30.61l-17.95 17.88a18.01 18.01 0 0 0-5.01 15.99l4.55 24.92c2.68 14.68-12.64 26.07-25.93 19.27" style="fill-rule:evenodd;clip-rule:evenodd;fill:#ededed"/></g></svg>