<svg xmlns="http://www.w3.org/2000/svg" xml:space="preserve" viewBox="0 0 512 512"><path d="M511.2 405.2c0 7.1-1.6 14.1-3.9 25.1-2.4 9.4-4.7 18.8-7.9 23.6-4.7 14.1-19.6 25.1-44 39.3-22.8 11.8-45.5 18.8-67.5 18.8h-18.8c-6.3-2.4-12.6-4.7-20.4-4.7-7.9-2.4-13.3-4.7-17.3-7.1-3.9 0-10.2-2.4-19.6-7.1s-15.7-4.7-18.1-7.1c-23.6-7.1-44.8-18.8-63.6-29.8-30.6-18.8-62.8-44-95.8-76.2-33-34.6-58.9-67.5-77.7-97.4-11.8-18.8-22-39.3-29.8-62.8-.8-2.4-3.1-9.4-6.3-18.8-3.9-9.4-6.3-16.5-7.9-21.2-1.6-2.4-3.1-9.4-4.7-16.5-2.4-7.1-3.9-14.1-4.7-21.2s-.8-11.8-.8-18.8c0-23.6 6.3-46.3 18.8-67.5C34.6 30.6 47.9 16.5 59.7 9.4 66 7.1 73.8 4.7 84 2.4 95 0 102.9 0 109.9 0h7.9c4.7 2.4 11 11.8 18.8 27.5 2.4 4.7 6.3 11.8 11 18.8 4.7 9.4 8.6 16.5 12.6 23.6 3.9 7.1 7.9 14.1 11 21.2.8 0 3.1 2.4 6.3 9.4 3.9 4.7 6.3 9.4 7.9 11.8 1.6 4.7 2.4 7.1 2.4 11.8s-3.1 9.4-10.2 18.8c-7.1 7.1-14.1 14.1-22.8 18.8-7.9 7.1-15.7 11.8-22.8 18.8-7.1 7.1-10.2 14.1-10.2 18.8 0 2.4.8 4.7 1.6 7.1 1.6 4.7 2.4 7.1 3.1 7.1.8 2.4 2.4 4.7 4.7 9.4 2.4 4.7 3.9 7.1 4.7 7.1 18.1 32.2 39.3 62.8 62.8 85.6 23.6 23.6 51.8 44 84.8 62.8.8 0 3.1 2.4 7.1 4.7 3.9 2.4 7.1 4.7 8.6 4.7 1.6 0 3.9 2.4 7.1 2.4 3.1 2.4 6.3 2.4 8.6 2.4 4.7 0 10.2-2.4 16.5-9.4 7.1-7.1 13.3-14.1 18.8-23.6 6.3-7.1 12.6-16.5 19.6-23.6 7.1-7.1 13.3-9.4 18.1-9.4 3.1 0 7.1 0 10.2 2.4 3.9 2.4 7.9 4.7 13.3 7.1 4.7 4.7 7.9 7.1 9.4 7.1 6.3 4.7 12.6 7.1 18.8 11.8 7.1 4.7 14.9 7.1 23.6 11.8 8.6 4.7 14.9 9.4 19.6 11.8 17.3 9.4 25.9 16.5 27.5 18.8.9.7.9 3.1.9 7.8" style="fill:#e74c3c"/><path d="M5.5 88.7C2.4 100.5.8 112.3.8 124c0 6.3.8 12.6 1.6 18.8.8 6.3 2.4 13.3 4.7 21.2 2.4 7.9 3.9 13.3 4.7 17.3 1.6 3.9 4.7 11 7.9 20.4 3.9 9.4 5.5 14.9 6.3 17.3 8.6 23.6 18.1 44.8 29.8 63.6 18.8 30.6 45.5 62.8 78.5 95.8s64.4 58.9 95.8 78.5q28.2 17.7 63.6 30.6c2.4.8 7.9 3.1 17.3 6.3 9.4 3.9 16.5 5.5 20.4 7.1s9.4 3.1 17.3 4.7c7.9 2.4 14.1 3.9 20.4 4.7s13.3.8 19.6.8c22 0 44.8-5.5 67.5-18.1 24.3-13.3 39.3-26.7 44-38.5 2.4-6.3 4.7-14.1 7.1-24.3 2.4-11 3.9-19.6 3.9-25.9 0-3.1 0-6.3-.8-7.9-.8-2.4-5.5-6.3-11.8-10.2-5.5 11.8-19.6 23.6-42.4 36.1-22.8 12.6-44.8 18.8-67.5 18.8-6.3 0-13.3-.8-19.6-1.6s-12.6-2.4-20.4-4.7c-7.9-2.4-13.3-3.9-17.3-4.7-3.9-1.6-11-4.7-20.4-7.9-9.4-3.9-14.9-5.5-17.3-6.3-23.6-8.6-44.8-18.1-63.6-29.8-30.6-18.8-62.8-45.5-95.8-78.5S75.4 242.4 55.8 211c-11.8-18.6-21.2-39-29.9-62.6-.8-2.4-3.1-8.6-6.3-18.1-3.9-9.4-6.3-15.7-7.9-19.6S8.6 101.3 7 93.4z" style="fill:#c0392b"/></svg>